<svg width="261" height="67" viewBox="0 0 261 67" fill="none" xmlns="http://www.w3.org/2000/svg">
<path d="M91.5459 33.3076H98.2109V42.2676C97.2751 42.5768 96.3066 42.8169 95.3057 42.9878C94.3047 43.1587 93.1816 43.2441 91.9365 43.2441C90.1217 43.2441 88.5837 42.8861 87.3223 42.1699C86.069 41.4456 85.1169 40.3999 84.4658 39.0327C83.8148 37.6574 83.4893 36.0013 83.4893 34.0645C83.4893 32.2008 83.8514 30.5854 84.5757 29.2183C85.3 27.8429 86.3538 26.7809 87.7373 26.0322C89.1208 25.2754 90.7972 24.897 92.7666 24.897C93.735 24.897 94.6709 24.9946 95.5742 25.1899C96.4857 25.3771 97.3198 25.6375 98.0767 25.9712L97.0513 28.3882C96.4491 28.1034 95.7736 27.8633 95.0249 27.668C94.2762 27.4727 93.499 27.375 92.6934 27.375C91.4157 27.375 90.313 27.6517 89.3853 28.2051C88.4657 28.7585 87.7576 29.5397 87.2612 30.5488C86.7648 31.5498 86.5166 32.7339 86.5166 34.1011C86.5166 35.4276 86.716 36.5913 87.1147 37.5923C87.5135 38.5933 88.1361 39.3745 88.9824 39.936C89.8369 40.4894 90.9396 40.7661 92.2905 40.7661C92.966 40.7661 93.5397 40.7295 94.0117 40.6562C94.4837 40.583 94.9191 40.5016 95.3179 40.4121V35.8101H91.5459V33.3076ZM107.488 29.2305C109.197 29.2305 110.487 29.6089 111.358 30.3657C112.237 31.1226 112.676 32.3026 112.676 33.9058V43H110.638L110.088 41.0835H109.991C109.608 41.5718 109.214 41.9746 108.807 42.292C108.4 42.6094 107.928 42.8454 107.391 43C106.862 43.1628 106.215 43.2441 105.45 43.2441C104.644 43.2441 103.924 43.0977 103.289 42.8047C102.654 42.5036 102.154 42.0479 101.788 41.4375C101.421 40.8271 101.238 40.054 101.238 39.1182C101.238 37.7266 101.755 36.6808 102.789 35.981C103.83 35.2811 105.401 34.8945 107.5 34.8213L109.844 34.7358V34.0278C109.844 33.092 109.625 32.4246 109.185 32.0259C108.754 31.6271 108.143 31.4277 107.354 31.4277C106.679 31.4277 106.023 31.5254 105.389 31.7207C104.754 31.916 104.135 32.1561 103.533 32.4409L102.605 30.4146C103.265 30.0646 104.013 29.7798 104.852 29.5601C105.698 29.3403 106.577 29.2305 107.488 29.2305ZM109.832 36.5425L108.086 36.6035C106.654 36.6523 105.649 36.8965 105.071 37.3359C104.493 37.7754 104.205 38.3776 104.205 39.1426C104.205 39.8099 104.404 40.2982 104.803 40.6074C105.201 40.9085 105.726 41.0591 106.377 41.0591C107.37 41.0591 108.192 40.7783 108.843 40.2168C109.502 39.6471 109.832 38.813 109.832 37.7144V36.5425ZM120.55 49.0059C118.719 49.0059 117.315 48.6763 116.338 48.0171C115.362 47.3579 114.874 46.4342 114.874 45.2461C114.874 44.416 115.134 43.7121 115.655 43.1343C116.176 42.5646 116.92 42.1699 117.889 41.9502C117.522 41.7874 117.205 41.5352 116.937 41.1934C116.676 40.8434 116.546 40.4569 116.546 40.0337C116.546 39.5291 116.688 39.0978 116.973 38.7397C117.258 38.3817 117.685 38.0358 118.255 37.7021C117.547 37.401 116.977 36.9128 116.546 36.2373C116.123 35.5537 115.911 34.7521 115.911 33.8325C115.911 32.856 116.119 32.0259 116.534 31.3423C116.949 30.6506 117.555 30.1257 118.353 29.7676C119.15 29.4014 120.114 29.2183 121.246 29.2183C121.49 29.2183 121.754 29.2345 122.039 29.2671C122.332 29.2915 122.601 29.3241 122.845 29.3647C123.097 29.3973 123.288 29.4339 123.418 29.4746H128.094V31.0737L125.799 31.501C126.019 31.8102 126.194 32.1642 126.324 32.563C126.454 32.9536 126.519 33.3809 126.519 33.8447C126.519 35.2445 126.035 36.3472 125.066 37.1528C124.106 37.9504 122.78 38.3491 121.087 38.3491C120.68 38.3328 120.285 38.3003 119.903 38.2515C119.61 38.4305 119.386 38.6299 119.231 38.8496C119.077 39.0612 119 39.3013 119 39.5698C119 39.7896 119.077 39.9686 119.231 40.1069C119.386 40.2371 119.614 40.3348 119.915 40.3999C120.224 40.465 120.599 40.4976 121.038 40.4976H123.37C124.851 40.4976 125.982 40.8109 126.763 41.4375C127.544 42.0641 127.935 42.9837 127.935 44.1963C127.935 45.7344 127.3 46.9185 126.031 47.7485C124.761 48.5868 122.934 49.0059 120.55 49.0059ZM120.66 46.9917C121.661 46.9917 122.503 46.894 123.187 46.6987C123.87 46.5034 124.387 46.2227 124.737 45.8564C125.087 45.4984 125.262 45.0711 125.262 44.5747C125.262 44.1353 125.152 43.7975 124.932 43.5615C124.712 43.3255 124.383 43.1628 123.943 43.0732C123.504 42.9837 122.959 42.939 122.308 42.939H120.184C119.655 42.939 119.187 43.0203 118.78 43.1831C118.373 43.354 118.056 43.5981 117.828 43.9155C117.608 44.2329 117.498 44.6154 117.498 45.063C117.498 45.6815 117.771 46.1576 118.316 46.4912C118.869 46.8249 119.651 46.9917 120.66 46.9917ZM121.221 36.4692C122.059 36.4692 122.682 36.2414 123.089 35.7856C123.496 35.3218 123.699 34.6707 123.699 33.8325C123.699 32.9211 123.488 32.2375 123.064 31.7817C122.649 31.326 122.031 31.0981 121.209 31.0981C120.403 31.0981 119.789 31.3301 119.366 31.7939C118.951 32.2578 118.743 32.9455 118.743 33.8569C118.743 34.6789 118.951 35.3218 119.366 35.7856C119.789 36.2414 120.407 36.4692 121.221 36.4692ZM135.857 29.2305C137.566 29.2305 138.856 29.6089 139.727 30.3657C140.606 31.1226 141.045 32.3026 141.045 33.9058V43H139.007L138.458 41.0835H138.36C137.977 41.5718 137.583 41.9746 137.176 42.292C136.769 42.6094 136.297 42.8454 135.76 43C135.231 43.1628 134.584 43.2441 133.819 43.2441C133.013 43.2441 132.293 43.0977 131.658 42.8047C131.023 42.5036 130.523 42.0479 130.157 41.4375C129.791 40.8271 129.607 40.054 129.607 39.1182C129.607 37.7266 130.124 36.6808 131.158 35.981C132.199 35.2811 133.77 34.8945 135.87 34.8213L138.213 34.7358V34.0278C138.213 33.092 137.994 32.4246 137.554 32.0259C137.123 31.6271 136.513 31.4277 135.723 31.4277C135.048 31.4277 134.393 31.5254 133.758 31.7207C133.123 31.916 132.505 32.1561 131.902 32.4409L130.975 30.4146C131.634 30.0646 132.382 29.7798 133.221 29.5601C134.067 29.3403 134.946 29.2305 135.857 29.2305ZM138.201 36.5425L136.456 36.6035C135.023 36.6523 134.018 36.8965 133.44 37.3359C132.863 37.7754 132.574 38.3776 132.574 39.1426C132.574 39.8099 132.773 40.2982 133.172 40.6074C133.571 40.9085 134.096 41.0591 134.747 41.0591C135.739 41.0591 136.561 40.7783 137.212 40.2168C137.872 39.6471 138.201 38.813 138.201 37.7144V36.5425ZM151.91 29.2305C152.138 29.2305 152.386 29.2427 152.654 29.2671C152.923 29.2915 153.155 29.3241 153.35 29.3647L153.082 32.0503C152.911 32.0015 152.699 31.9648 152.447 31.9404C152.203 31.916 151.983 31.9038 151.788 31.9038C151.275 31.9038 150.787 31.9893 150.323 32.1602C149.859 32.3229 149.448 32.5752 149.09 32.917C148.732 33.2507 148.451 33.6698 148.248 34.1743C148.044 34.6789 147.942 35.2648 147.942 35.9321V43H145.062V29.4868H147.308L147.698 31.8672H147.833C148.101 31.387 148.435 30.9476 148.833 30.5488C149.232 30.1501 149.688 29.8327 150.201 29.5967C150.722 29.3525 151.291 29.2305 151.91 29.2305ZM158.721 29.4868V43H155.853V29.4868H158.721ZM157.305 24.311C157.745 24.311 158.123 24.429 158.44 24.665C158.766 24.901 158.929 25.3079 158.929 25.8857C158.929 26.4554 158.766 26.8623 158.44 27.1064C158.123 27.3424 157.745 27.4604 157.305 27.4604C156.849 27.4604 156.463 27.3424 156.146 27.1064C155.836 26.8623 155.682 26.4554 155.682 25.8857C155.682 25.3079 155.836 24.901 156.146 24.665C156.463 24.429 156.849 24.311 157.305 24.311ZM169.878 29.2305C171.4 29.2305 172.584 29.6252 173.431 30.4146C174.285 31.1958 174.712 32.4531 174.712 34.1865V43H171.844V34.7236C171.844 33.6738 171.628 32.8885 171.197 32.3677C170.765 31.8387 170.098 31.5742 169.195 31.5742C167.885 31.5742 166.973 31.9771 166.46 32.7827C165.956 33.5884 165.704 34.7562 165.704 36.2861V43H162.835V29.4868H165.069L165.472 31.3179H165.63C165.923 30.8459 166.285 30.4593 166.717 30.1582C167.156 29.849 167.645 29.617 168.182 29.4624C168.727 29.3078 169.292 29.2305 169.878 29.2305ZM200.005 33.9058C200.005 35.9159 199.631 37.5964 198.882 38.9473C198.134 40.29 197.047 41.3032 195.623 41.9868C194.199 42.6623 192.482 43 190.472 43H185.516V25.1533H191.009C192.856 25.1533 194.451 25.487 195.794 26.1543C197.137 26.8135 198.174 27.7941 198.907 29.0962C199.639 30.3901 200.005 31.9933 200.005 33.9058ZM196.954 33.9912C196.954 32.5264 196.722 31.3219 196.258 30.3779C195.802 29.4339 195.127 28.734 194.231 28.2783C193.344 27.8145 192.25 27.5825 190.948 27.5825H188.445V40.5464H190.521C192.677 40.5464 194.288 39.9971 195.354 38.8984C196.421 37.7998 196.954 36.1641 196.954 33.9912ZM206.426 29.4868V43H203.558V29.4868H206.426ZM205.01 24.311C205.45 24.311 205.828 24.429 206.146 24.665C206.471 24.901 206.634 25.3079 206.634 25.8857C206.634 26.4554 206.471 26.8623 206.146 27.1064C205.828 27.3424 205.45 27.4604 205.01 27.4604C204.555 27.4604 204.168 27.3424 203.851 27.1064C203.541 26.8623 203.387 26.4554 203.387 25.8857C203.387 25.3079 203.541 24.901 203.851 24.665C204.168 24.429 204.555 24.311 205.01 24.311ZM214.397 49.0059C212.566 49.0059 211.163 48.6763 210.186 48.0171C209.209 47.3579 208.721 46.4342 208.721 45.2461C208.721 44.416 208.982 43.7121 209.502 43.1343C210.023 42.5646 210.768 42.1699 211.736 41.9502C211.37 41.7874 211.053 41.5352 210.784 41.1934C210.524 40.8434 210.394 40.4569 210.394 40.0337C210.394 39.5291 210.536 39.0978 210.821 38.7397C211.106 38.3817 211.533 38.0358 212.103 37.7021C211.395 37.401 210.825 36.9128 210.394 36.2373C209.97 35.5537 209.759 34.7521 209.759 33.8325C209.759 32.856 209.966 32.0259 210.381 31.3423C210.796 30.6506 211.403 30.1257 212.2 29.7676C212.998 29.4014 213.962 29.2183 215.093 29.2183C215.337 29.2183 215.602 29.2345 215.887 29.2671C216.18 29.2915 216.448 29.3241 216.692 29.3647C216.945 29.3973 217.136 29.4339 217.266 29.4746H221.941V31.0737L219.646 31.501C219.866 31.8102 220.041 32.1642 220.171 32.563C220.302 32.9536 220.367 33.3809 220.367 33.8447C220.367 35.2445 219.882 36.3472 218.914 37.1528C217.954 37.9504 216.627 38.3491 214.935 38.3491C214.528 38.3328 214.133 38.3003 213.75 38.2515C213.458 38.4305 213.234 38.6299 213.079 38.8496C212.924 39.0612 212.847 39.3013 212.847 39.5698C212.847 39.7896 212.924 39.9686 213.079 40.1069C213.234 40.2371 213.462 40.3348 213.763 40.3999C214.072 40.465 214.446 40.4976 214.886 40.4976H217.217C218.698 40.4976 219.83 40.8109 220.611 41.4375C221.392 42.0641 221.783 42.9837 221.783 44.1963C221.783 45.7344 221.148 46.9185 219.878 47.7485C218.609 48.5868 216.782 49.0059 214.397 49.0059ZM214.507 46.9917C215.508 46.9917 216.351 46.894 217.034 46.6987C217.718 46.5034 218.235 46.2227 218.584 45.8564C218.934 45.4984 219.109 45.0711 219.109 44.5747C219.109 44.1353 219 43.7975 218.78 43.5615C218.56 43.3255 218.23 43.1628 217.791 43.0732C217.352 42.9837 216.806 42.939 216.155 42.939H214.031C213.502 42.939 213.034 43.0203 212.627 43.1831C212.221 43.354 211.903 43.5981 211.675 43.9155C211.456 44.2329 211.346 44.6154 211.346 45.063C211.346 45.6815 211.618 46.1576 212.164 46.4912C212.717 46.8249 213.498 46.9917 214.507 46.9917ZM215.069 36.4692C215.907 36.4692 216.53 36.2414 216.937 35.7856C217.343 35.3218 217.547 34.6707 217.547 33.8325C217.547 32.9211 217.335 32.2375 216.912 31.7817C216.497 31.326 215.879 31.0981 215.057 31.0981C214.251 31.0981 213.637 31.3301 213.213 31.7939C212.798 32.2578 212.591 32.9455 212.591 33.8569C212.591 34.6789 212.798 35.3218 213.213 35.7856C213.637 36.2414 214.255 36.4692 215.069 36.4692ZM227.276 29.4868V43H224.407V29.4868H227.276ZM225.86 24.311C226.299 24.311 226.678 24.429 226.995 24.665C227.321 24.901 227.483 25.3079 227.483 25.8857C227.483 26.4554 227.321 26.8623 226.995 27.1064C226.678 27.3424 226.299 27.4604 225.86 27.4604C225.404 27.4604 225.018 27.3424 224.7 27.1064C224.391 26.8623 224.236 26.4554 224.236 25.8857C224.236 25.3079 224.391 24.901 224.7 24.665C225.018 24.429 225.404 24.311 225.86 24.311ZM236.419 40.9248C236.793 40.9248 237.164 40.8923 237.53 40.8271C237.896 40.7539 238.23 40.6685 238.531 40.5708V42.7437C238.213 42.882 237.802 43 237.298 43.0977C236.793 43.1953 236.268 43.2441 235.723 43.2441C234.958 43.2441 234.271 43.118 233.66 42.8657C233.05 42.6053 232.566 42.1618 232.208 41.5352C231.849 40.9085 231.67 40.0418 231.67 38.9351V31.6719H229.827V30.3901L231.805 29.377L232.745 26.4839H234.551V29.4868H238.421V31.6719H234.551V38.8984C234.551 39.582 234.722 40.0907 235.064 40.4243C235.406 40.758 235.857 40.9248 236.419 40.9248ZM246.575 29.2305C248.284 29.2305 249.574 29.6089 250.445 30.3657C251.324 31.1226 251.763 32.3026 251.763 33.9058V43H249.725L249.175 41.0835H249.078C248.695 41.5718 248.3 41.9746 247.894 42.292C247.487 42.6094 247.015 42.8454 246.478 43C245.949 43.1628 245.302 43.2441 244.537 43.2441C243.731 43.2441 243.011 43.0977 242.376 42.8047C241.741 42.5036 241.241 42.0479 240.875 41.4375C240.508 40.8271 240.325 40.054 240.325 39.1182C240.325 37.7266 240.842 36.6808 241.875 35.981C242.917 35.2811 244.488 34.8945 246.587 34.8213L248.931 34.7358V34.0278C248.931 33.092 248.711 32.4246 248.272 32.0259C247.841 31.6271 247.23 31.4277 246.441 31.4277C245.765 31.4277 245.11 31.5254 244.476 31.7207C243.841 31.916 243.222 32.1561 242.62 32.4409L241.692 30.4146C242.352 30.0646 243.1 29.7798 243.938 29.5601C244.785 29.3403 245.664 29.2305 246.575 29.2305ZM248.919 36.5425L247.173 36.6035C245.741 36.6523 244.736 36.8965 244.158 37.3359C243.58 37.7754 243.292 38.3776 243.292 39.1426C243.292 39.8099 243.491 40.2982 243.89 40.6074C244.288 40.9085 244.813 41.0591 245.464 41.0591C246.457 41.0591 247.279 40.7783 247.93 40.2168C248.589 39.6471 248.919 38.813 248.919 37.7144V36.5425ZM258.66 43H255.779V24.0059H258.66V43Z" fill="white"/>
<g clip-path="url(#clip0_39_233)">
<path d="M33.5163 66.902C15.0832 66.902 0.0816956 51.9115 0.0816956 33.4918C0.0816956 15.0721 15.0832 0.0816345 33.5163 0.0816345C51.9495 0.0816345 66.951 15.0721 66.951 33.4918C66.951 51.9115 51.9495 66.902 33.5163 66.902ZM33.5163 2.53106C16.4232 2.53106 2.53291 16.4275 2.53291 33.4918C2.53291 50.5725 16.4395 64.4526 33.5163 64.4526C50.5932 64.4526 64.4997 50.5562 64.4997 33.4918C64.4997 16.4275 50.5932 2.53106 33.5163 2.53106Z" fill="white"/>
<path d="M42.5371 21.2447C39.5139 21.2447 37.0463 18.779 37.0463 15.758C37.0463 12.737 39.5139 10.2713 42.5371 10.2713C45.5603 10.2713 48.0278 12.737 48.0278 15.758C48.0278 18.779 45.5603 21.2447 42.5371 21.2447ZM42.5371 11.3327C40.1022 11.3327 38.1085 13.3086 38.1085 15.758C38.1085 18.2074 40.0859 20.1833 42.5371 20.1833C44.972 20.1833 46.9656 18.2074 46.9656 15.758C46.9656 13.3086 44.972 11.3327 42.5371 11.3327Z" fill="white"/>
<path d="M43.0764 10.7611H42.0142V20.6242H43.0764V10.7611Z" fill="white"/>
<path d="M47.456 15.1701H37.5858V16.2316H47.456V15.1701Z" fill="white"/>
<path d="M42.8802 21.0814L42.2756 20.1996C44.0405 18.9749 44.9556 17.3093 44.8576 15.4804C44.7595 13.7495 43.7627 12.1165 42.3246 11.3164L42.8312 10.3856C44.5961 11.3654 45.8054 13.3412 45.9198 15.4314C46.0505 17.6359 44.972 19.6444 42.8802 21.0814Z" fill="white"/>
<path d="M42.2594 21.0978C40.5926 20.2649 39.3506 18.1584 39.2199 15.9866C39.0892 13.7168 40.1513 11.7246 42.194 10.4019L42.7823 11.3C41.0665 12.4104 40.184 14.0434 40.2821 15.9213C40.3801 17.7012 41.4096 19.4811 42.7333 20.1506L42.2594 21.0978Z" fill="white"/>
<path d="M23.0743 23.9064C21.3911 25.7516 20.3943 26.7151 20.1655 27.9235C20.0185 28.6909 19.6916 25.8333 19.855 24.331C20.0185 22.7633 20.3453 22.3878 20.8682 22.0612C21.1787 21.8652 21.9304 21.6203 22.6821 21.457C22.7148 21.457 22.9272 21.6039 22.9763 21.8489C23.0416 22.1265 22.8455 22.2734 22.7311 22.7143C22.5677 23.2532 23.156 23.8084 23.0743 23.9064Z" fill="white"/>
<path d="M37.471 35.1738C39.7261 34.4389 43.0108 33.3938 43.0271 33.4265C43.7298 34.1287 45.1025 35.3371 45.7725 36.7414C46.753 38.7826 46.4915 39.746 46.5242 39.7297C46.7693 39.6317 48.9754 38.8153 51.3612 37.8192C51.6064 35.3044 51.0181 34.6186 50.5115 33.8347C49.8415 32.7897 48.3871 31.8752 48.4688 31.222C48.5015 30.9934 48.2727 30.3239 47.8315 30.1933C47.7825 30.1769 47.7171 30.1933 47.7008 30.1933C46.8347 30.4382 38.4025 33.1816 36.7847 33.6878C36.2127 33.8674 37.1605 35.2717 37.471 35.1738Z" fill="white"/>
<path d="M19.7406 39.1418C19.6426 39.4684 19.7897 40.2849 20.1001 40.6115C20.1165 40.6278 17.3221 41.4443 16.0148 41.8689C15.8514 41.9178 15.4265 41.6076 15.3775 41.085C15.3448 40.6768 15.5082 40.4645 15.7043 40.3992C17.3711 39.8767 19.757 39.1255 19.7406 39.1418Z" fill="white"/>
<path d="M44.171 22.6817C44.1546 22.7633 43.5827 24.7066 42.7329 24.8535C42.1937 24.9515 42.0302 24.7555 41.9485 24.6412C41.589 24.1514 41.6217 23.2042 41.6054 23.2042C41.2949 23.3349 41.0824 23.7268 41.0334 23.8574C40.7393 24.5923 40.8863 25.0331 40.7883 25.4414C40.5758 26.3069 39.0561 27.1397 38.3534 27.058C37.5527 26.9764 37.2095 25.7353 35.7715 24.4779C35.1341 23.9227 34.2844 23.3022 33.4019 22.9756C33.2712 22.9266 33.2059 22.7797 33.2222 22.5347C33.2222 22.5184 33.2222 22.4857 33.2712 22.3878C33.3202 22.3225 33.4673 22.2081 33.5817 22.0938C34.4641 21.261 34.9707 19.971 35.0034 18.5667C35.0524 17.3256 34.5622 16.1172 33.6471 15.1538C32.5358 13.9944 31.0978 13.2922 29.3983 13.2596C27.7151 13.2269 26.2117 13.7984 25.1495 14.7456C24.9044 14.9415 24.7737 15.0885 24.7737 15.0885C23.7605 16.1662 23.499 17.3583 23.4173 17.7339C23.2702 18.387 23.2539 18.9259 23.2702 19.1545C23.3029 19.775 23.401 20.2813 23.7768 21.0487C24.0383 21.5713 24.4468 21.8652 24.3324 22.1265C24.2834 22.2408 24.169 22.2735 24.0056 22.5511C23.9076 22.698 23.8912 22.7797 23.8749 22.8287C23.8259 23.0246 23.8585 23.1716 23.8749 23.2369C23.9729 23.6125 24.2998 23.7431 24.3815 23.9227C24.6266 24.4453 23.0905 25.5557 22.2898 26.4538C21.0478 27.8418 20.1327 29.981 19.9529 31.418C19.6261 34.047 20.1654 35.7943 20.6066 36.9537C20.6229 36.9864 20.7537 37.3619 20.7863 37.6069C20.8354 38.0151 20.7373 38.2111 20.6883 38.6846C20.6556 39.1255 20.6556 39.4848 20.7863 39.8114C21.0315 40.4645 21.5544 41.0361 22.3224 41.2484C22.4859 41.2973 23.3846 41.5749 24.218 41.0524C24.6102 40.8075 24.7246 40.5299 24.8227 40.3012C24.8554 40.2033 24.9371 39.9093 24.8717 39.9093C24.7083 39.942 24.3488 39.9257 23.9402 39.6154C23.6624 39.4031 23.3846 38.9296 23.3683 38.407C23.352 38.0804 23.4337 37.8355 23.5154 37.6559C23.548 37.6069 23.5807 37.4926 23.7932 37.2803C23.8912 37.166 24.1037 37.0517 24.1037 37.0517C24.12 37.0027 23.8585 36.8394 23.6951 36.4638C22.9761 34.7819 23.8585 32.5121 24.3815 32.2345C24.4632 32.1855 23.7932 35.9413 25.6888 37.2803C25.7051 37.2966 24.6429 37.6232 24.6102 37.6395C24.4468 37.7702 24.2998 38.1294 24.4305 38.4723C24.5449 38.7499 24.7573 39.0929 25.1985 39.0439C25.3293 39.0275 26.1627 38.7499 26.179 38.7499C26.228 38.7499 26.3098 39.6481 25.9666 40.4319C25.8685 40.6605 25.6398 41.1177 25.1005 41.5913C25.0678 41.6239 25.0515 41.6403 25.0515 41.6403C25.5907 42.5711 26.751 43.7631 28.4341 46.9147C28.6466 47.3066 28.761 47.6659 28.8263 47.8292C28.8263 47.8292 28.8263 47.8781 28.8263 47.9271C28.8754 48.6783 26.6039 50.3276 26.3098 51.9932C26.2444 52.4014 26.3098 52.728 26.4732 53.3812C26.9471 55.3734 28.5485 57.8718 29.9702 57.6432C30.9507 57.4799 31.6861 56.0756 31.8168 55.0631C31.9639 53.8711 31.3756 53.5118 31.588 52.3851C31.8659 50.8501 33.1732 50.7848 34.1373 48.7109C34.6112 47.6822 34.7256 46.7841 34.7419 46.5555C35.0198 43.8611 33.2712 42.0648 33.7941 41.7872C33.9249 41.7056 36.278 42.5384 36.7846 44.2857C37.3893 46.3758 35.1995 47.8618 36.0329 50.3112C36.2617 50.9644 36.6212 51.389 36.85 51.6666C38.1246 53.1362 40.4451 54.018 41.2458 53.2669C41.8505 52.6954 41.589 51.193 41.1478 50.4909C41.0661 50.3766 40.8537 50.0663 40.6085 49.7234C40.2163 49.2008 40.0856 49.1029 39.9876 48.9722C39.3666 48.0088 41.3112 45.9023 41.8995 43.3549C41.9649 43.1099 42.0466 42.669 41.9649 42.1302C41.8668 41.3463 41.4746 40.7748 41.2295 40.4482C39.7915 38.554 37.2422 37.3129 35.9185 35.1085C34.7093 33.0836 34.84 30.7648 35.3629 30.5362C35.8368 30.3239 36.7193 31.8915 38.4024 31.7936C38.5658 31.7772 38.6802 31.7609 38.7783 31.7446C40.2327 31.467 41.6054 29.7524 42.7656 28.3317C43.7461 27.1397 43.8441 26.9764 44.6449 25.8006C44.9554 25.3434 45.0371 25.1964 45.1188 24.6902C45.2822 23.2859 44.171 22.6817 44.171 22.6817ZM33.0588 16.4112C33.3693 16.8031 33.5327 17.2276 33.5327 17.2276C33.5817 17.3746 33.8105 17.9951 33.7941 18.632C33.7615 19.7587 33.5327 20.3629 32.879 21.1141C32.83 21.1631 32.5522 21.4243 32.5032 21.457C32.2254 21.6366 32.1763 21.6856 31.8659 21.8326C31.4083 22.0122 30.869 22.1102 30.2644 22.1428C27.7968 22.2571 26.13 20.7058 26.1954 18.7789C26.228 17.8645 26.6039 16.9664 27.3393 16.2479C28.5485 15.1048 30.1827 15.1865 30.4768 15.1865C31.6861 15.2028 32.5522 15.7417 33.0588 16.4112Z" fill="white"/>
</g>
<defs>
<clipPath id="clip0_39_233">
<rect width="67" height="67" fill="white"/>
</clipPath>
</defs>
</svg>
