<svg width="28" height="28" viewBox="0 0 28 28" fill="none" xmlns="http://www.w3.org/2000/svg">
<path fill-rule="evenodd" clip-rule="evenodd" d="M14 26.25C17.2489 26.25 20.3647 24.9594 22.6621 22.6621C24.9594 20.3647 26.25 17.2489 26.25 14C26.25 10.7511 24.9594 7.63526 22.6621 5.33794C20.3647 3.04062 17.2489 1.75 14 1.75C10.7511 1.75 7.63526 3.04062 5.33794 5.33794C3.04062 7.63526 1.75 10.7511 1.75 14C1.75 17.2489 3.04062 20.3647 5.33794 22.6621C7.63526 24.9594 10.7511 26.25 14 26.25ZM14 -5.94675e-07C17.713 -7.52393e-07 21.274 1.47499 23.8995 4.1005C26.525 6.72601 28 10.287 28 14C28 17.713 26.525 21.274 23.8995 23.8995C21.274 26.525 17.713 28 14 28C10.287 28 6.72601 26.525 4.10051 23.8995C1.475 21.274 -4.62726e-07 17.713 -6.29744e-07 14C-7.96763e-07 10.287 1.475 6.72601 4.1005 4.1005C6.72601 1.47499 10.287 -4.36957e-07 14 -5.94675e-07ZM13.125 7.875C13.125 7.64293 13.2172 7.42038 13.3813 7.25628C13.5454 7.09219 13.7679 7 14 7C14.2321 7 14.4546 7.09219 14.6187 7.25628C14.7828 7.42038 14.875 7.64293 14.875 7.875L14.875 18.0127L18.6305 14.2555C18.7119 14.1741 18.8084 14.1096 18.9147 14.0656C19.021 14.0216 19.1349 13.9989 19.25 13.9989C19.3651 13.9989 19.479 14.0216 19.5853 14.0656C19.6916 14.1096 19.7881 14.1741 19.8695 14.2555C19.9509 14.3369 20.0154 14.4334 20.0594 14.5397C20.1034 14.646 20.1261 14.7599 20.1261 14.875C20.1261 14.9901 20.1034 15.104 20.0594 15.2103C20.0154 15.3166 19.9509 15.4131 19.8695 15.4945L14.6195 20.7445C14.5382 20.826 14.4417 20.8906 14.3354 20.9347C14.2291 20.9789 14.1151 21.0016 14 21.0016C13.8849 21.0016 13.7709 20.9789 13.6646 20.9347C13.5583 20.8906 13.4618 20.826 13.3805 20.7445L8.1305 15.4945C7.9662 15.3302 7.87389 15.1074 7.87389 14.875C7.87389 14.6426 7.9662 14.4198 8.1305 14.2555C8.2948 14.0912 8.51764 13.9989 8.75 13.9989C8.98236 13.9989 9.2052 14.0912 9.3695 14.2555L13.125 18.0128L13.125 7.875Z" fill="black"/>
</svg>
