<svg width="28" height="28" viewBox="0 0 28 28" fill="none" xmlns="http://www.w3.org/2000/svg">
<path fill-rule="evenodd" clip-rule="evenodd" d="M14 1.75C10.7511 1.75 7.63526 3.04062 5.33794 5.33794C3.04062 7.63526 1.75 10.7511 1.75 14C1.75 17.2489 3.04062 20.3647 5.33794 22.6621C7.63526 24.9594 10.7511 26.25 14 26.25C17.2489 26.25 20.3647 24.9594 22.6621 22.6621C24.9594 20.3647 26.25 17.2489 26.25 14C26.25 10.7511 24.9594 7.63526 22.6621 5.33794C20.3647 3.04062 17.2489 1.75 14 1.75ZM14 28C10.287 28 6.72601 26.525 4.1005 23.8995C1.47499 21.274 -7.49806e-07 17.713 -5.92631e-07 14C-4.35455e-07 10.287 1.47499 6.72601 4.1005 4.1005C6.72601 1.47499 10.287 -1.16239e-06 14 -9.18728e-07C17.713 -6.75066e-07 21.274 1.475 23.8995 4.10051C26.525 6.72601 28 10.287 28 14C28 17.713 26.525 21.274 23.8995 23.8995C21.274 26.525 17.713 28 14 28ZM14.875 20.125C14.875 20.3571 14.7828 20.5796 14.6187 20.7437C14.4546 20.9078 14.2321 21 14 21C13.7679 21 13.5454 20.9078 13.3813 20.7437C13.2172 20.5796 13.125 20.3571 13.125 20.125L13.125 9.98725L9.3695 13.7445C9.28815 13.8259 9.19156 13.8904 9.08527 13.9344C8.97898 13.9784 8.86505 14.0011 8.75 14.0011C8.63495 14.0011 8.52102 13.9784 8.41473 13.9344C8.30843 13.8904 8.21185 13.8259 8.1305 13.7445C8.04915 13.6631 7.98461 13.5666 7.94058 13.4603C7.89655 13.354 7.8739 13.2401 7.8739 13.125C7.8739 13.0099 7.89655 12.896 7.94058 12.7897C7.98461 12.6834 8.04915 12.5869 8.1305 12.5055L13.3805 7.2555C13.4618 7.17401 13.5583 7.10936 13.6646 7.06525C13.7709 7.02114 13.8849 6.99844 14 6.99844C14.1151 6.99844 14.2291 7.02114 14.3354 7.06525C14.4417 7.10936 14.5382 7.17401 14.6195 7.2555L19.8695 12.5055C20.0338 12.6698 20.1261 12.8926 20.1261 13.125C20.1261 13.3574 20.0338 13.5802 19.8695 13.7445C19.7052 13.9088 19.4824 14.0011 19.25 14.0011C19.0176 14.0011 18.7948 13.9088 18.6305 13.7445L14.875 9.98725L14.875 20.125Z" fill="white"/>
</svg>
